<svg width="107" height="24" viewBox="0 0 107 24" fill="none" xmlns="http://www.w3.org/2000/svg">
<path d="M2.736 23.192C1.98933 23.192 1.38133 22.968 0.912 22.52C0.464 22.0507 0.24 21.4427 0.24 20.696V2.776C0.24 2.02933 0.442667 1.45333 0.848 1.048C1.25333 0.642665 1.82933 0.439999 2.576 0.439999H13.584C14.3947 0.439999 14.992 0.599998 15.376 0.919998C15.76 1.24 15.952 1.74133 15.952 2.424C15.952 3.08533 15.76 3.576 15.376 3.896C14.992 4.216 14.3947 4.376 13.584 4.376H5.168V9.56H12.944C13.7547 9.56 14.352 9.72 14.736 10.04C15.12 10.36 15.312 10.8613 15.312 11.544C15.312 12.2053 15.12 12.696 14.736 13.016C14.352 13.336 13.7547 13.496 12.944 13.496H5.168V20.696C5.168 21.464 4.944 22.072 4.496 22.52C4.06933 22.968 3.48267 23.192 2.736 23.192ZM29.184 18.328C29.6107 18.328 29.952 18.4987 30.208 18.84C30.4853 19.1813 30.624 19.6187 30.624 20.152C30.624 20.5147 30.5173 20.856 30.304 21.176C30.0907 21.4747 29.792 21.7307 29.408 21.944C28.6827 22.328 27.84 22.648 26.88 22.904C25.92 23.1387 25.0347 23.256 24.224 23.256C22.5173 23.256 21.024 22.9253 19.744 22.264C18.4853 21.6027 17.5147 20.664 16.832 19.448C16.1493 18.2107 15.808 16.76 15.808 15.096C15.808 13.496 16.1387 12.0773 16.8 10.84C17.4613 9.60267 18.3787 8.64267 19.552 7.96C20.7253 7.256 22.0587 6.904 23.552 6.904C24.9813 6.904 26.2293 7.224 27.296 7.864C28.384 8.48267 29.2267 9.37867 29.824 10.552C30.4213 11.704 30.72 13.0587 30.72 14.616C30.72 15.0853 30.6027 15.448 30.368 15.704C30.1547 15.9387 29.8453 16.056 29.44 16.056H20.48C20.6293 17.3147 21.0133 18.232 21.632 18.808C22.2507 19.3627 23.136 19.64 24.288 19.64C24.9067 19.64 25.4613 19.5653 25.952 19.416C26.4427 19.2667 26.9867 19.064 27.584 18.808C27.8827 18.68 28.1707 18.5733 28.448 18.488C28.7253 18.3813 28.9707 18.328 29.184 18.328ZM23.68 10.232C22.7627 10.232 22.0267 10.5307 21.472 11.128C20.9173 11.704 20.5867 12.5467 20.48 13.656H26.656C26.592 12.5253 26.304 11.672 25.792 11.096C25.3013 10.52 24.5973 10.232 23.68 10.232ZM44.9665 18.328C45.3932 18.328 45.7345 18.4987 45.9905 18.84C46.2678 19.1813 46.4065 19.6187 46.4065 20.152C46.4065 20.5147 46.2998 20.856 46.0865 21.176C45.8732 21.4747 45.5745 21.7307 45.1905 21.944C44.4652 22.328 43.6225 22.648 42.6625 22.904C41.7025 23.1387 40.8172 23.256 40.0065 23.256C38.2998 23.256 36.8065 22.9253 35.5265 22.264C34.2678 21.6027 33.2972 20.664 32.6145 19.448C31.9318 18.2107 31.5905 16.76 31.5905 15.096C31.5905 13.496 31.9212 12.0773 32.5825 10.84C33.2438 9.60267 34.1612 8.64267 35.3345 7.96C36.5078 7.256 37.8412 6.904 39.3345 6.904C40.7638 6.904 42.0118 7.224 43.0785 7.864C44.1665 8.48267 45.0092 9.37867 45.6065 10.552C46.2038 11.704 46.5025 13.0587 46.5025 14.616C46.5025 15.0853 46.3852 15.448 46.1505 15.704C45.9372 15.9387 45.6278 16.056 45.2225 16.056H36.2625C36.4118 17.3147 36.7958 18.232 37.4145 18.808C38.0332 19.3627 38.9185 19.64 40.0705 19.64C40.6892 19.64 41.2438 19.5653 41.7345 19.416C42.2252 19.2667 42.7692 19.064 43.3665 18.808C43.6652 18.68 43.9532 18.5733 44.2305 18.488C44.5078 18.3813 44.7532 18.328 44.9665 18.328ZM39.4625 10.232C38.5452 10.232 37.8092 10.5307 37.2545 11.128C36.6998 11.704 36.3692 12.5467 36.2625 13.656H42.4385C42.3745 12.5253 42.0865 11.672 41.5745 11.096C41.0838 10.52 40.3798 10.232 39.4625 10.232ZM61.549 0.279999C62.2957 0.279999 62.893 0.482665 63.341 0.887999C63.8103 1.29333 64.045 1.82667 64.045 2.488V20.92C64.045 21.6027 63.821 22.1573 63.373 22.584C62.9463 22.9893 62.3703 23.192 61.645 23.192C60.9197 23.192 60.333 22.9893 59.885 22.584C59.4583 22.1573 59.245 21.6027 59.245 20.92V20.664C58.7757 21.4747 58.1037 22.1147 57.229 22.584C56.3757 23.032 55.405 23.256 54.317 23.256C52.973 23.256 51.7677 22.9147 50.701 22.232C49.6557 21.528 48.8343 20.5573 48.237 19.32C47.661 18.0613 47.373 16.6213 47.373 15C47.373 13.3787 47.661 11.96 48.237 10.744C48.8343 9.50667 49.6557 8.55733 50.701 7.896C51.7463 7.23467 52.9517 6.904 54.317 6.904C55.3837 6.904 56.3437 7.128 57.197 7.576C58.0717 8.024 58.7437 8.65333 59.213 9.464V2.392C59.213 1.752 59.4263 1.24 59.853 0.855999C60.2797 0.471999 60.845 0.279999 61.549 0.279999ZM55.725 19.576C56.8557 19.576 57.7197 19.192 58.317 18.424C58.9357 17.6347 59.245 16.5147 59.245 15.064C59.245 13.6133 58.9357 12.504 58.317 11.736C57.7197 10.968 56.8557 10.584 55.725 10.584C54.5943 10.584 53.7197 10.968 53.101 11.736C52.4823 12.4827 52.173 13.5707 52.173 15C52.173 16.4507 52.4823 17.5813 53.101 18.392C53.7197 19.1813 54.5943 19.576 55.725 19.576Z" fill="#484A4F"/>
<path d="M86.902 0.279999C87.606 0.279999 88.1713 0.514666 88.598 0.983999C89.046 1.432 89.27 2.01867 89.27 2.744V20.92C89.27 21.624 89.0673 22.1787 88.662 22.584C88.2567 22.9893 87.7233 23.192 87.062 23.192C86.422 23.192 85.8993 22.9893 85.494 22.584C85.0887 22.1787 84.886 21.624 84.886 20.92V9.624L80.342 18.168C80.0433 18.7227 79.7127 19.128 79.35 19.384C79.0087 19.64 78.5927 19.768 78.102 19.768C77.6327 19.768 77.2167 19.64 76.854 19.384C76.4913 19.128 76.1607 18.7227 75.862 18.168L71.318 9.784V20.92C71.318 21.6027 71.1153 22.1573 70.71 22.584C70.3047 22.9893 69.7713 23.192 69.11 23.192C68.47 23.192 67.9473 22.9893 67.542 22.584C67.1367 22.1787 66.934 21.624 66.934 20.92V2.744C66.934 2.01867 67.1473 1.432 67.574 0.983999C68.022 0.514666 68.598 0.279999 69.302 0.279999C70.326 0.279999 71.1047 0.823999 71.638 1.912L78.134 14.232L84.598 1.912C85.174 0.823999 85.942 0.279999 86.902 0.279999ZM104.751 18.328C105.178 18.328 105.519 18.4987 105.775 18.84C106.053 19.1813 106.191 19.6187 106.191 20.152C106.191 20.5147 106.085 20.856 105.871 21.176C105.658 21.4747 105.359 21.7307 104.975 21.944C104.25 22.328 103.407 22.648 102.447 22.904C101.487 23.1387 100.602 23.256 99.7915 23.256C98.0848 23.256 96.5915 22.9253 95.3115 22.264C94.0528 21.6027 93.0822 20.664 92.3995 19.448C91.7168 18.2107 91.3755 16.76 91.3755 15.096C91.3755 13.496 91.7062 12.0773 92.3675 10.84C93.0288 9.60267 93.9462 8.64267 95.1195 7.96C96.2928 7.256 97.6262 6.904 99.1195 6.904C100.549 6.904 101.797 7.224 102.863 7.864C103.951 8.48267 104.794 9.37867 105.391 10.552C105.989 11.704 106.287 13.0587 106.287 14.616C106.287 15.0853 106.17 15.448 105.935 15.704C105.722 15.9387 105.413 16.056 105.007 16.056H96.0475C96.1968 17.3147 96.5808 18.232 97.1995 18.808C97.8182 19.3627 98.7035 19.64 99.8555 19.64C100.474 19.64 101.029 19.5653 101.519 19.416C102.01 19.2667 102.554 19.064 103.151 18.808C103.45 18.68 103.738 18.5733 104.015 18.488C104.293 18.3813 104.538 18.328 104.751 18.328ZM99.2475 10.232C98.3302 10.232 97.5942 10.5307 97.0395 11.128C96.4848 11.704 96.1542 12.5467 96.0475 13.656H102.223C102.159 12.5253 101.871 11.672 101.359 11.096C100.869 10.52 100.165 10.232 99.2475 10.232Z" fill="#F7B602"/>
</svg>
