<svg width="175" height="37" viewBox="0 0 175 37" fill="none" xmlns="http://www.w3.org/2000/svg">
<path d="M4 36.3C3.03333 36.3 2.25 36 1.65 35.4C1.08333 34.8 0.8 34.0167 0.8 33.05V3.8C0.8 2.83333 1.06667 2.08333 1.6 1.55C2.16667 1.01667 2.93333 0.749998 3.9 0.749998H21.45C23.4833 0.749998 24.5 1.61666 24.5 3.35C24.5 5.05 23.4833 5.9 21.45 5.9H7.15V15.5H20.45C22.4833 15.5 23.5 16.3667 23.5 18.1C23.5 19.8 22.4833 20.65 20.45 20.65H7.15V33.05C7.15 34.0167 6.86667 34.8 6.3 35.4C5.73333 36 4.96667 36.3 4 36.3ZM47.432 29.3C47.9987 29.3 48.4487 29.5167 48.782 29.95C49.1487 30.3833 49.332 30.9667 49.332 31.7C49.332 32.7333 48.7154 33.6 47.482 34.3C46.3487 34.9333 45.0654 35.45 43.632 35.85C42.1987 36.2167 40.832 36.4 39.532 36.4C35.5987 36.4 32.482 35.2667 30.182 33C27.882 30.7333 26.732 27.6333 26.732 23.7C26.732 21.2 27.232 18.9833 28.232 17.05C29.232 15.1167 30.632 13.6167 32.432 12.55C34.2654 11.4833 36.332 10.95 38.632 10.95C40.832 10.95 42.7487 11.4333 44.382 12.4C46.0154 13.3667 47.282 14.7333 48.182 16.5C49.082 18.2667 49.532 20.35 49.532 22.75C49.532 24.1833 48.8987 24.9 47.632 24.9H32.882C33.082 27.2 33.732 28.9 34.832 30C35.932 31.0667 37.532 31.6 39.632 31.6C40.6987 31.6 41.632 31.4667 42.432 31.2C43.2654 30.9333 44.1987 30.5667 45.232 30.1C46.232 29.5667 46.9654 29.3 47.432 29.3ZM38.782 15.35C37.082 15.35 35.7154 15.8833 34.682 16.95C33.682 18.0167 33.082 19.55 32.882 21.55H44.182C44.1154 19.5167 43.6154 17.9833 42.682 16.95C41.7487 15.8833 40.4487 15.35 38.782 15.35ZM73.9945 29.3C74.5612 29.3 75.0112 29.5167 75.3445 29.95C75.7112 30.3833 75.8945 30.9667 75.8945 31.7C75.8945 32.7333 75.2779 33.6 74.0445 34.3C72.9112 34.9333 71.6279 35.45 70.1945 35.85C68.7612 36.2167 67.3945 36.4 66.0945 36.4C62.1612 36.4 59.0445 35.2667 56.7445 33C54.4445 30.7333 53.2945 27.6333 53.2945 23.7C53.2945 21.2 53.7945 18.9833 54.7945 17.05C55.7945 15.1167 57.1945 13.6167 58.9945 12.55C60.8279 11.4833 62.8945 10.95 65.1945 10.95C67.3945 10.95 69.3112 11.4333 70.9445 12.4C72.5779 13.3667 73.8445 14.7333 74.7445 16.5C75.6445 18.2667 76.0945 20.35 76.0945 22.75C76.0945 24.1833 75.4612 24.9 74.1945 24.9H59.4445C59.6445 27.2 60.2945 28.9 61.3945 30C62.4945 31.0667 64.0945 31.6 66.1945 31.6C67.2612 31.6 68.1945 31.4667 68.9945 31.2C69.8279 30.9333 70.7612 30.5667 71.7945 30.1C72.7945 29.5667 73.5279 29.3 73.9945 29.3ZM65.3445 15.35C63.6445 15.35 62.2779 15.8833 61.2445 16.95C60.2445 18.0167 59.6445 19.55 59.4445 21.55H70.7445C70.6779 19.5167 70.1779 17.9833 69.2445 16.95C68.3112 15.8833 67.0112 15.35 65.3445 15.35ZM101.607 0.499998C102.54 0.499998 103.307 0.766665 103.907 1.3C104.507 1.83333 104.807 2.53333 104.807 3.4V33.3C104.807 34.2 104.524 34.9167 103.957 35.45C103.39 35.9833 102.64 36.25 101.707 36.25C100.774 36.25 100.024 35.9833 99.457 35.45C98.8904 34.9167 98.607 34.2 98.607 33.3V32.05C97.8737 33.4167 96.807 34.4833 95.407 35.25C94.0404 36.0167 92.4737 36.4 90.707 36.4C88.607 36.4 86.7237 35.8667 85.057 34.8C83.4237 33.7333 82.1404 32.2333 81.207 30.3C80.307 28.3333 79.857 26.0833 79.857 23.55C79.857 21.0167 80.307 18.8 81.207 16.9C82.1404 15 83.4237 13.5333 85.057 12.5C86.6904 11.4667 88.5737 10.95 90.707 10.95C92.4737 10.95 94.0404 11.3167 95.407 12.05C96.7737 12.7833 97.8237 13.8167 98.557 15.15V3.3C98.557 2.46667 98.8237 1.8 99.357 1.3C99.9237 0.766665 100.674 0.499998 101.607 0.499998ZM92.357 31.55C94.357 31.55 95.8904 30.8667 96.957 29.5C98.057 28.1333 98.607 26.1833 98.607 23.65C98.607 21.1167 98.057 19.1833 96.957 17.85C95.8904 16.4833 94.3737 15.8 92.407 15.8C90.407 15.8 88.857 16.4667 87.757 17.8C86.657 19.1333 86.107 21.05 86.107 23.55C86.107 26.0833 86.657 28.05 87.757 29.45C88.857 30.85 90.3904 31.55 92.357 31.55Z" fill="black"/>
<path d="M143.086 0.499998C144.02 0.499998 144.77 0.799998 145.336 1.4C145.903 1.96667 146.186 2.73333 146.186 3.7V33.3C146.186 34.2333 145.92 34.9667 145.386 35.5C144.853 36.0333 144.153 36.3 143.286 36.3C142.42 36.3 141.736 36.0333 141.236 35.5C140.736 34.9667 140.486 34.2333 140.486 33.3V12.7L131.986 28.8C131.586 29.5333 131.153 30.0833 130.686 30.45C130.22 30.7833 129.67 30.95 129.036 30.95C128.403 30.95 127.853 30.7833 127.386 30.45C126.92 30.1167 126.486 29.5667 126.086 28.8L117.536 12.95V33.3C117.536 34.2 117.27 34.9333 116.736 35.5C116.236 36.0333 115.553 36.3 114.686 36.3C113.82 36.3 113.136 36.0333 112.636 35.5C112.136 34.9667 111.886 34.2333 111.886 33.3V3.7C111.886 2.73333 112.153 1.96667 112.686 1.4C113.253 0.799998 114.003 0.499998 114.936 0.499998C116.236 0.499998 117.253 1.21666 117.986 2.65L129.086 23.8L140.136 2.65C140.87 1.21666 141.853 0.499998 143.086 0.499998ZM172.627 29.3C173.194 29.3 173.644 29.5167 173.977 29.95C174.344 30.3833 174.527 30.9667 174.527 31.7C174.527 32.7333 173.911 33.6 172.677 34.3C171.544 34.9333 170.261 35.45 168.827 35.85C167.394 36.2167 166.027 36.4 164.727 36.4C160.794 36.4 157.677 35.2667 155.377 33C153.077 30.7333 151.927 27.6333 151.927 23.7C151.927 21.2 152.427 18.9833 153.427 17.05C154.427 15.1167 155.827 13.6167 157.627 12.55C159.461 11.4833 161.527 10.95 163.827 10.95C166.027 10.95 167.944 11.4333 169.577 12.4C171.211 13.3667 172.477 14.7333 173.377 16.5C174.277 18.2667 174.727 20.35 174.727 22.75C174.727 24.1833 174.094 24.9 172.827 24.9H158.077C158.277 27.2 158.927 28.9 160.027 30C161.127 31.0667 162.727 31.6 164.827 31.6C165.894 31.6 166.827 31.4667 167.627 31.2C168.461 30.9333 169.394 30.5667 170.427 30.1C171.427 29.5667 172.161 29.3 172.627 29.3ZM163.977 15.35C162.277 15.35 160.911 15.8833 159.877 16.95C158.877 18.0167 158.277 19.55 158.077 21.55H169.377C169.311 19.5167 168.811 17.9833 167.877 16.95C166.944 15.8833 165.644 15.35 163.977 15.35Z" fill="#F7B602"/>
</svg>
